<svg xmlns="http://www.w3.org/2000/svg" viewBox="0 0 100 110"><defs><linearGradient id="nd-c" x1="0.92" y1="0.04" x2="0.12" y2="0.96"><stop offset="0" stop-color="#9AA1AA"/><stop offset="0.35" stop-color="#5E656E"/><stop offset="0.7" stop-color="#2B3036"/><stop offset="1" stop-color="#111418"/></linearGradient><radialGradient id="nd-s" cx="0.24" cy="0.26" r="0.46"><stop offset="0" stop-color="#000000" stop-opacity="0.85"/><stop offset="1" stop-color="#000000" stop-opacity="0"/></radialGradient><linearGradient id="nd-a" x1="0.9" y1="0.1" x2="0.1" y2="1"><stop offset="0" stop-color="#B8BEC6"/><stop offset="0.5" stop-color="#6B727B"/><stop offset="1" stop-color="#2F343A"/></linearGradient></defs><path fill="url(#nd-c)" d="M27.5 104 C19 90 9 70 7.5 48 C6 30 10 13 26 10 C35 8.5 42 13 49 17 C58 11 67 7 78 9 C92 12 95 27 93 44 C91 65 76 88 67 104 Z"/><path fill="url(#nd-s)" d="M27.5 104 C19 90 9 70 7.5 48 C6 30 10 13 26 10 C35 8.5 42 13 49 17 C58 11 67 7 78 9 C92 12 95 27 93 44 C91 65 76 88 67 104 Z"/><path fill="#FFFFFF" d="M27.5 104.4 C27.5 72 33.5 45 46.5 45 C60 45 66.5 72 67 104.4 Z"/><path fill="url(#nd-a)" d="M34 104.4 C33.5 78 38 57 46.5 57 C55 57 59.5 78 59.5 104.4 L53.5 104.4 C53.5 84 51 71 46.5 71 C42 71 40 84 40 104.4 Z"/></svg>